<svg xmlns="http://www.w3.org/2000/svg" width="1600" height="900" viewBox="0 0 1600 900" role="img" aria-label="W1-L2 跪姿射击入门 训练示意图">
  <defs>
    <linearGradient id="bg" x1="0" y1="0" x2="1" y2="1">
      <stop offset="0" stop-color="#050605"/>
      <stop offset=".44" stop-color="hsl(75 18% 9%)"/>
      <stop offset="1" stop-color="#11160f"/>
    </linearGradient>
    <radialGradient id="lamp" cx=".73" cy=".2" r=".64">
      <stop offset="0" stop-color="hsl(75 28% 42%)" stop-opacity=".6"/>
      <stop offset=".38" stop-color="#d8b84e" stop-opacity=".13"/>
      <stop offset="1" stop-color="#000" stop-opacity="0"/>
    </radialGradient>
    <filter id="grain">
      <feTurbulence type="fractalNoise" baseFrequency=".8" numOctaves="3" stitchTiles="stitch"/>
      <feColorMatrix type="saturate" values="0"/>
      <feComponentTransfer><feFuncA type="table" tableValues="0 .12"/></feComponentTransfer>
    </filter>
  </defs>
  <rect width="1600" height="900" fill="url(#bg)"/>
  <rect width="1600" height="900" fill="url(#lamp)"/>
  <path d="M0 690 C280 650 408 720 642 684 C934 640 1160 640 1600 702 L1600 900 L0 900 Z" fill="#080a08"/>
  <path d="M0 690 C260 648 486 720 734 682 C1010 640 1200 650 1600 704" fill="none" stroke="#d8b84e" stroke-opacity=".22" stroke-width="2"/>
  <g opacity=".32">
    <path d="M0 0 L-430 900" stroke="#9aa7a0" stroke-opacity=".06"/><path d="M78 0 L-352 900" stroke="#9aa7a0" stroke-opacity=".06"/><path d="M156 0 L-274 900" stroke="#9aa7a0" stroke-opacity=".06"/><path d="M234 0 L-196 900" stroke="#9aa7a0" stroke-opacity=".06"/><path d="M312 0 L-118 900" stroke="#9aa7a0" stroke-opacity=".06"/><path d="M390 0 L-40 900" stroke="#9aa7a0" stroke-opacity=".06"/><path d="M468 0 L38 900" stroke="#9aa7a0" stroke-opacity=".06"/><path d="M546 0 L116 900" stroke="#9aa7a0" stroke-opacity=".06"/><path d="M624 0 L194 900" stroke="#9aa7a0" stroke-opacity=".06"/><path d="M702 0 L272 900" stroke="#9aa7a0" stroke-opacity=".06"/><path d="M780 0 L350 900" stroke="#9aa7a0" stroke-opacity=".06"/><path d="M858 0 L428 900" stroke="#9aa7a0" stroke-opacity=".06"/><path d="M936 0 L506 900" stroke="#9aa7a0" stroke-opacity=".06"/><path d="M1014 0 L584 900" stroke="#9aa7a0" stroke-opacity=".06"/><path d="M1092 0 L662 900" stroke="#9aa7a0" stroke-opacity=".06"/><path d="M1170 0 L740 900" stroke="#9aa7a0" stroke-opacity=".06"/><path d="M1248 0 L818 900" stroke="#9aa7a0" stroke-opacity=".06"/><path d="M1326 0 L896 900" stroke="#9aa7a0" stroke-opacity=".06"/><path d="M1404 0 L974 900" stroke="#9aa7a0" stroke-opacity=".06"/><path d="M1482 0 L1052 900" stroke="#9aa7a0" stroke-opacity=".06"/><path d="M1560 0 L1130 900" stroke="#9aa7a0" stroke-opacity=".06"/><path d="M1638 0 L1208 900" stroke="#9aa7a0" stroke-opacity=".06"/>
    <path d="M0 0 H1600" stroke="#9aa7a0" stroke-opacity=".04"/><path d="M0 94 H1600" stroke="#9aa7a0" stroke-opacity=".04"/><path d="M0 188 H1600" stroke="#9aa7a0" stroke-opacity=".04"/><path d="M0 282 H1600" stroke="#9aa7a0" stroke-opacity=".04"/><path d="M0 376 H1600" stroke="#9aa7a0" stroke-opacity=".04"/><path d="M0 470 H1600" stroke="#9aa7a0" stroke-opacity=".04"/><path d="M0 564 H1600" stroke="#9aa7a0" stroke-opacity=".04"/><path d="M0 658 H1600" stroke="#9aa7a0" stroke-opacity=".04"/><path d="M0 752 H1600" stroke="#9aa7a0" stroke-opacity=".04"/><path d="M0 846 H1600" stroke="#9aa7a0" stroke-opacity=".04"/>
  </g>
  <g transform="translate(88 110)">
    <rect x="0" y="0" width="520" height="170" fill="#0b0d0b" fill-opacity=".62" stroke="#9aa7a0" stroke-opacity=".22"/>
    <path d="M0 0 H520 L490 28 H0 Z" fill="#d8b84e" opacity=".18"/>
    <text x="30" y="58" fill="#d8b84e" font-family="Bahnschrift, Arial, sans-serif" font-size="34" font-weight="800">W1-L2</text>
    <text x="30" y="110" fill="#eef0e9" font-family="Microsoft YaHei, Arial, sans-serif" font-size="42" font-weight="800">跪姿射击入门</text>
    <text x="30" y="145" fill="#9aa7a0" font-family="Microsoft YaHei, Arial, sans-serif" font-size="22">NON-LETHAL LASER TRAINING / DOCUMENTARY COVER</text>
  </g>
  
      <g opacity="0.72" transform="translate(353 318)">
        <circle cx="0" cy="-80" r="18" fill="#1c211d"/>
        <path d="M-22 -58 L22 -58 L32 72 L-30 72 Z" fill="#151a16"/>
        <path d="M-36 -32 L76 -54 L82 -42 L-30 -18 Z" fill="#222922"/>
        <path d="M-18 72 L-42 152 L-16 152 L4 72 Z" fill="#0d100e"/>
        <path d="M18 72 L34 152 L60 152 L36 72 Z" fill="#0d100e"/>
        <path d="M78 -53 L138 -59" stroke="#d8b84e" stroke-width="3" opacity=".42"/>
      </g>
      <g opacity="0.64" transform="translate(445 340)">
        <circle cx="0" cy="-80" r="18" fill="#1c211d"/>
        <path d="M-22 -58 L22 -58 L32 72 L-30 72 Z" fill="#151a16"/>
        <path d="M-36 -32 L76 -54 L82 -42 L-30 -18 Z" fill="#222922"/>
        <path d="M-18 72 L-42 152 L-16 152 L4 72 Z" fill="#0d100e"/>
        <path d="M18 72 L34 152 L60 152 L36 72 Z" fill="#0d100e"/>
        <path d="M78 -53 L138 -59" stroke="#d8b84e" stroke-width="3" opacity=".42"/>
      </g>
      <g opacity="0.5599999999999999" transform="translate(537 318)">
        <circle cx="0" cy="-80" r="18" fill="#1c211d"/>
        <path d="M-22 -58 L22 -58 L32 72 L-30 72 Z" fill="#151a16"/>
        <path d="M-36 -32 L76 -54 L82 -42 L-30 -18 Z" fill="#222922"/>
        <path d="M-18 72 L-42 152 L-16 152 L4 72 Z" fill="#0d100e"/>
        <path d="M18 72 L34 152 L60 152 L36 72 Z" fill="#0d100e"/>
        <path d="M78 -53 L138 -59" stroke="#d8b84e" stroke-width="3" opacity=".42"/>
      </g>
      <g opacity="0.48" transform="translate(629 340)">
        <circle cx="0" cy="-80" r="18" fill="#1c211d"/>
        <path d="M-22 -58 L22 -58 L32 72 L-30 72 Z" fill="#151a16"/>
        <path d="M-36 -32 L76 -54 L82 -42 L-30 -18 Z" fill="#222922"/>
        <path d="M-18 72 L-42 152 L-16 152 L4 72 Z" fill="#0d100e"/>
        <path d="M18 72 L34 152 L60 152 L36 72 Z" fill="#0d100e"/>
        <path d="M78 -53 L138 -59" stroke="#d8b84e" stroke-width="3" opacity=".42"/>
      </g>
  <g transform="translate(1030 250)" opacity=".55">
    <rect x="0" y="0" width="380" height="240" fill="hsl(75 16% 18%)" stroke="#9aa7a0" stroke-opacity=".2"/>
    <path d="M0 80 H380 M0 160 H380 M126 0 V240 M252 0 V240" stroke="#d8b84e" stroke-opacity=".16"/>
  </g>
  <rect width="1600" height="900" fill="#000" opacity=".14"/>
  <rect width="1600" height="900" filter="url(#grain)" opacity=".65"/>
</svg>
